<?xml version="1.0" encoding="utf-8"?>
<svg version="1.1" xmlns:xlink="http://www.w3.org/1999/xlink" width="10px" height="8px" xmlns="http://www.w3.org/2000/svg">
  <g transform="matrix(1 0 0 1 -42 -1150 )">
    <path d="M 6.17838541666667 3.05729166666667  C 6.50390625 3.31770833333333  6.66666666666667 3.63194444444444  6.66666666666667 4  C 6.66666666666667 4.36805555555556  6.50390625 4.68229166666667  6.17838541666667 4.94270833333333  C 5.85286458333333 5.203125  5.46006944444445 5.33333333333333  5 5.33333333333333  C 4.53993055555556 5.33333333333333  4.14713541666667 5.203125  3.82161458333333 4.94270833333333  C 3.49609375 4.68229166666667  3.33333333333333 4.36805555555556  3.33333333333333 4  C 3.33333333333333 3.63194444444444  3.49609375 3.31770833333333  3.82161458333333 3.05729166666667  C 4.14713541666667 2.796875  4.53993055555556 2.66666666666667  5 2.66666666666667  C 5.46006944444445 2.66666666666667  5.85286458333333 2.796875  6.17838541666667 3.05729166666667  Z M 6.77734375 1.546875  C 6.23480902777778 1.29340277777778  5.64236111111111 1.16666666666667  5 1.16666666666667  C 4.35763888888889 1.16666666666667  3.76519097222222 1.29340277777778  3.22265625 1.546875  C 2.68012152777778 1.80034722222222  2.25043402777778 2.14409722222222  1.93359375 2.578125  C 1.61675347222222 3.01215277777778  1.45833333333333 3.48611111111111  1.45833333333333 4  C 1.45833333333333 4.51388888888889  1.61675347222222 4.98784722222222  1.93359375 5.421875  C 2.25043402777778 5.85590277777778  2.68012152777778 6.19965277777778  3.22265625 6.453125  C 3.76519097222222 6.70659722222222  4.35763888888889 6.83333333333333  5 6.83333333333333  C 5.64236111111111 6.83333333333333  6.23480902777778 6.70659722222222  6.77734375 6.453125  C 7.31987847222222 6.19965277777778  7.74956597222222 5.85590277777778  8.06640625 5.421875  C 8.38324652777778 4.98784722222222  8.54166666666667 4.51388888888889  8.54166666666667 4  C 8.54166666666667 3.48611111111111  8.38324652777778 3.01215277777778  8.06640625 2.578125  C 7.74956597222222 2.14409722222222  7.31987847222222 1.80034722222222  6.77734375 1.546875  Z M 9.32942708333333 1.9921875  C 9.77647569444444 2.60503472222222  10 3.27430555555555  10 4  C 10 4.72569444444444  9.77647569444444 5.39496527777778  9.32942708333333 6.0078125  C 8.88237847222222 6.62065972222222  8.27582465277778 7.10590277777778  7.509765625 7.46354166666667  C 6.74370659722222 7.82118055555556  5.90711805555556 8  5 8  C 4.09288194444444 8  3.25629340277778 7.82118055555556  2.490234375 7.46354166666667  C 1.72417534722222 7.10590277777778  1.11762152777778 6.62065972222222  0.670572916666667 6.0078125  C 0.223524305555556 5.39496527777778  0 4.72569444444444  0 4  C 0 3.27430555555555  0.223524305555556 2.60503472222222  0.670572916666667 1.9921875  C 1.11762152777778 1.37934027777778  1.72417534722222 0.894097222222221  2.490234375 0.536458333333333  C 3.25629340277778 0.178819444444444  4.09288194444444 0  5 0  C 5.90711805555556 0  6.74370659722222 0.178819444444444  7.509765625 0.536458333333333  C 8.27582465277778 0.894097222222221  8.88237847222222 1.37934027777778  9.32942708333333 1.9921875  Z " fill-rule="nonzero" fill="#000000" stroke="none" transform="matrix(1 0 0 1 42 1150 )" />
  </g>
</svg>