<?xml version="1.0" encoding="utf-8"?>
<svg version="1.1" xmlns:xlink="http://www.w3.org/1999/xlink" width="76px" height="29px" xmlns="http://www.w3.org/2000/svg">
  <g transform="matrix(1 0 0 1 -121 -374 )">
    <path d="M 122 379  A 4 4 0 0 1 126 375 L 192 375  A 4 4 0 0 1 196 379 L 196 398  A 4 4 0 0 1 192 402 L 126 402  A 4 4 0 0 1 122 398 L 122 379  Z " fill-rule="nonzero" fill="#ffffff" stroke="none" />
    <path d="M 121.5 379  A 4.5 4.5 0 0 1 126 374.5 L 192 374.5  A 4.5 4.5 0 0 1 196.5 379 L 196.5 398  A 4.5 4.5 0 0 1 192 402.5 L 126 402.5  A 4.5 4.5 0 0 1 121.5 398 L 121.5 379  Z " stroke-width="1" stroke="#797979" fill="none" stroke-opacity="0.486274509803922" />
  </g>
</svg>