<?xml version="1.0" encoding="utf-8"?>
<svg version="1.1" xmlns:xlink="http://www.w3.org/1999/xlink" width="76px" height="29px" xmlns="http://www.w3.org/2000/svg">
  <g transform="matrix(1 0 0 1 -217 -374 )">
    <path d="M 218 379  A 4 4 0 0 1 222 375 L 288 375  A 4 4 0 0 1 292 379 L 292 398  A 4 4 0 0 1 288 402 L 222 402  A 4 4 0 0 1 218 398 L 218 379  Z " fill-rule="nonzero" fill="#d7d7d7" stroke="none" />
    <path d="M 217.5 379  A 4.5 4.5 0 0 1 222 374.5 L 288 374.5  A 4.5 4.5 0 0 1 292.5 379 L 292.5 398  A 4.5 4.5 0 0 1 288 402.5 L 222 402.5  A 4.5 4.5 0 0 1 217.5 398 L 217.5 379  Z " stroke-width="1" stroke="#797979" fill="none" stroke-opacity="0.486274509803922" />
  </g>
</svg>