<?xml version="1.0" encoding="utf-8"?>
<svg version="1.1" xmlns:xlink="http://www.w3.org/1999/xlink" width="62px" height="58px" xmlns="http://www.w3.org/2000/svg">
  <g transform="matrix(1 0 0 1 -39 -130 )">
    <path d="M 70 130.5  C 87.08 130.5  100.5 143.04  100.5 159  C 100.5 174.96  87.08 187.5  70 187.5  C 52.92 187.5  39.5 174.96  39.5 159  C 39.5 143.04  52.92 130.5  70 130.5  Z " fill-rule="nonzero" fill="#d7d7d7" stroke="none" />
    <path d="M 70 130.5  C 87.08 130.5  100.5 143.04  100.5 159  C 100.5 174.96  87.08 187.5  70 187.5  C 52.92 187.5  39.5 174.96  39.5 159  C 39.5 143.04  52.92 130.5  70 130.5  Z " stroke-width="1" stroke="#000000" fill="none" stroke-opacity="0.0470588235294118" />
  </g>
</svg>