<?xml version="1.0" encoding="utf-8"?>
<svg version="1.1" xmlns:xlink="http://www.w3.org/1999/xlink" width="10px" height="10px" xmlns="http://www.w3.org/2000/svg">
  <g transform="matrix(1 0 0 1 -234 -369 )">
    <path d="M 239 369  C 241.8 369  244 371.2  244 374  C 244 376.8  241.8 379  239 379  C 236.2 379  234 376.8  234 374  C 234 371.2  236.2 369  239 369  Z " fill-rule="nonzero" fill="#ffffff" stroke="none" />
    <path d="M 239 369.5  C 241.52 369.5  243.5 371.48  243.5 374  C 243.5 376.52  241.52 378.5  239 378.5  C 236.48 378.5  234.5 376.52  234.5 374  C 234.5 371.48  236.48 369.5  239 369.5  Z " stroke-width="1" stroke="#d7d7d7" fill="none" />
  </g>
</svg>