<svg t="1611295572031" class="icon" viewBox="0 0 1024 1024" version="1.1" xmlns="http://www.w3.org/2000/svg" p-id="2521" width="200" height="200"><path d="M512.17 895.86h-0.22c-9.66-0.07-18.78-4.5-24.8-12.06l-92.28-115.79H160.09c-17.67 0-32-14.33-32-32V223.87c0-17.67 14.33-32 32-32h704.47c17.67 0 32 14.33 32 32v512.14c0 17.67-14.33 32-32 32H632.12l-95.2 116.14a32.03 32.03 0 0 1-24.75 11.71zM192.09 704.01h218.19c9.74 0 18.95 4.44 25.02 12.06l77.22 96.89 79.7-97.23a31.983 31.983 0 0 1 24.75-11.71h215.59V255.87H192.09v448.14z" p-id="2522"></path><path d="M312.25 504.41m-56.2 0a56.2 56.2 0 1 0 112.4 0 56.2 56.2 0 1 0-112.4 0Z" p-id="2523"></path><path d="M512 504.41m-56.2 0a56.2 56.2 0 1 0 112.4 0 56.2 56.2 0 1 0-112.4 0Z" p-id="2524"></path><path d="M711.95 504.41m-56.2 0a56.2 56.2 0 1 0 112.4 0 56.2 56.2 0 1 0-112.4 0Z" p-id="2525"></path></svg>