<?xml version="1.0" encoding="utf-8"?>
<svg version="1.1" xmlns:xlink="http://www.w3.org/1999/xlink" width="11px" height="10px" xmlns="http://www.w3.org/2000/svg">
  <g transform="matrix(1 0 0 1 -385 -205 )">
    <path d="M 390.5 205  C 393.58 205  396 207.2  396 210  C 396 212.8  393.58 215  390.5 215  C 387.42 215  385 212.8  385 210  C 385 207.2  387.42 205  390.5 205  Z " fill-rule="nonzero" fill="#f2f2f2" stroke="none" />
    <path d="M 390.5 205.5  C 393.3 205.5  395.5 207.48  395.5 210  C 395.5 212.52  393.3 214.5  390.5 214.5  C 387.7 214.5  385.5 212.52  385.5 210  C 385.5 207.48  387.7 205.5  390.5 205.5  Z " stroke-width="1" stroke="#d7d7d7" fill="none" />
  </g>
</svg>