<?xml version="1.0" encoding="utf-8"?>
<svg version="1.1" xmlns:xlink="http://www.w3.org/1999/xlink" width="11px" height="10px" xmlns="http://www.w3.org/2000/svg">
  <g transform="matrix(1 0 0 1 -400 -205 )">
    <path d="M 405.5 205  C 408.58 205  411 207.2  411 210  C 411 212.8  408.58 215  405.5 215  C 402.42 215  400 212.8  400 210  C 400 207.2  402.42 205  405.5 205  Z " fill-rule="nonzero" fill="#ffffff" stroke="none" />
    <path d="M 405.5 205.5  C 408.3 205.5  410.5 207.48  410.5 210  C 410.5 212.52  408.3 214.5  405.5 214.5  C 402.7 214.5  400.5 212.52  400.5 210  C 400.5 207.48  402.7 205.5  405.5 205.5  Z " stroke-width="1" stroke="#d7d7d7" fill="none" />
  </g>
</svg>