<?xml version="1.0" encoding="utf-8"?>
<svg version="1.1" xmlns:xlink="http://www.w3.org/1999/xlink" width="24px" height="24px" xmlns="http://www.w3.org/2000/svg">
  <g transform="matrix(1 0 0 1 -59 -3513 )">
    <path d="M 71 3513  C 77.72 3513  83 3518.28  83 3525  C 83 3531.72  77.72 3537  71 3537  C 64.28 3537  59 3531.72  59 3525  C 59 3518.28  64.28 3513  71 3513  Z " fill-rule="nonzero" fill="#f2f2f2" stroke="none" />
    <path d="M 71 3513.5  C 77.44 3513.5  82.5 3518.56  82.5 3525  C 82.5 3531.44  77.44 3536.5  71 3536.5  C 64.56 3536.5  59.5 3531.44  59.5 3525  C 59.5 3518.56  64.56 3513.5  71 3513.5  Z " stroke-width="1" stroke="#d7d7d7" fill="none" />
  </g>
</svg>