<svg t="1583741130806" class="icon" viewBox="0 0 1039 1024" version="1.1" xmlns="http://www.w3.org/2000/svg" p-id="5890" width="200" height="200"><path d="M650.511657 546.493605c-12.002358 0-21.731954 9.729595-21.731954 21.731954l-0.024559 0c0 66.015529-53.516868 119.531374-119.531374 119.531374-65.87943 0-119.306246-53.29788-119.525234-119.127168 0.002047-0.1361 0.020466-0.268106 0.020466-0.404206 0-12.002358-9.729595-21.731954-21.732977-21.731954s-21.732977 9.729595-21.732977 21.731954c0 90.02127 72.975035 162.996305 162.996305 162.996305 90.020246 0 162.995281-72.975035 162.995281-162.996305C672.244634 556.223201 662.515039 546.493605 650.511657 546.493605z" p-id="5891"></path><path d="M1022.819105 513.782599c0-41.544185-27.431769-76.673264-65.167209-88.284719C924.353512 209.295793 737.50087 43.747363 511.978511 43.747363c-225.52236 0-412.376025 165.54843-445.674409 381.750517-37.734416 11.611455-65.166185 46.740534-65.166185 88.284719 0 45.148269 32.407084 82.684164 75.218122 90.727351 0.201591 0.044002 0.405229 0.079818 0.607844 0.11768 0.289596 0.052189 0.574075 0.11768 0.86367 0.167822-0.00307-0.01228-0.00614-0.024559-0.010233-0.036839 1.034563 0.150426 2.083451 0.254803 3.15997 0.254803 20.341281 0 31.924083-9.892301 31.924083-25.638937 0-1.246387-0.127913-2.459005-0.329505-3.647063-0.096191-0.477884-0.196475-0.953721-0.291642-1.429559-5.102205-25.743314-7.791453-52.354392-7.791453-79.595826 0-225.050616 182.440146-407.488715 407.488715-407.488715s407.488715 182.439122 407.488715 407.488715c0 168.610162-102.415554 313.284169-248.425999 375.252523-7.245008-5.403057-16.228613-8.602935-25.962302-8.602935-24.00574 0-43.465954 19.460214-43.465954 43.465954s19.460214 43.465954 43.465954 43.465954c22.290679 0 40.651862-16.782222 43.163055-38.399565 128.787178-54.745858 226.889497-167.645185 261.315564-305.751612C991.396441 595.327824 1022.819105 558.242184 1022.819105 513.782599zM44.577265 513.782599c0-14.71105 6.511297-27.887141 16.792455-36.851303-0.228197 5.895267-0.345877 11.819187-0.345877 17.770735 0 19.894096 1.304715 39.482223 3.809769 58.69275C52.568263 544.511461 44.577265 530.08796 44.577265 513.782599zM80.095199 560.699142c0.393973-0.234337 0.792039-0.459464 1.202385-0.668219C80.888262 560.240701 80.488149 560.464805 80.095199 560.699142zM78.57559 561.684586c0.39295-0.279363 0.797156-0.542352 1.209548-0.796132C79.372745 561.142234 78.967516 561.4042 78.57559 561.684586zM89.160669 557.743834c-0.229221 0.021489-0.453325 0.053212-0.680499 0.081864C88.707344 557.798069 88.931448 557.7643 89.160669 557.743834zM87.219457 558.01808c-0.273223 0.051165-0.546446 0.104377-0.815575 0.164752C86.674035 558.121434 86.945211 558.068222 87.219457 558.01808zM85.367273 558.449915c-0.297782 0.082888-0.598634 0.158612-0.8913 0.25378C84.768639 558.608527 85.068468 558.531779 85.367273 558.449915zM83.877339 558.922682c-0.756223 0.272199-1.494027 0.578168-2.209318 0.929162C82.384335 559.502897 83.120093 559.192835 83.877339 558.922682zM959.12648 553.391712c2.496867-19.211551 3.806699-38.797631 3.806699-58.68968 0-5.951549-0.116657-11.875468-0.345877-17.771759 10.281157 8.963139 16.793478 22.140253 16.793478 36.852326C979.38078 530.085914 971.389782 544.507368 959.12648 553.391712z" p-id="5892"></path><path d="M859.703073 494.702032c0-192.042851-155.681712-347.724563-347.724563-347.724563S164.253948 302.659181 164.253948 494.702032s155.681712 347.723539 347.724563 347.723539S859.703073 686.745906 859.703073 494.702032zM511.952928 798.960641c-168.038134 0-304.259632-136.220475-304.259632-304.258609S343.915817 190.443423 511.952928 190.443423c168.037111 0 304.257585 136.221498 304.257585 304.258609S679.990039 798.960641 511.952928 798.960641z" p-id="5893"></path><path d="M367.986025 402.650523m-43.465954 0a42.476 42.476 0 1 0 86.931908 0 42.476 42.476 0 1 0-86.931908 0Z" p-id="5894"></path><path d="M645.078924 402.650523m-43.465954 0a42.476 42.476 0 1 0 86.931908 0 42.476 42.476 0 1 0-86.931908 0Z" p-id="5895"></path></svg>