<?xml version="1.0" encoding="utf-8"?>
<svg version="1.1" xmlns:xlink="http://www.w3.org/1999/xlink" width="50px" height="50px" xmlns="http://www.w3.org/2000/svg">
  <g transform="matrix(1 0 0 1 -82 -675 )">
    <path d="M 107 675  C 121 675  132 686  132 700  C 132 714  121 725  107 725  C 93 725  82 714  82 700  C 82 686  93 675  107 675  Z " fill-rule="nonzero" fill="#f2f2f2" stroke="none" />
    <path d="M 107 675.5  C 120.72 675.5  131.5 686.28  131.5 700  C 131.5 713.72  120.72 724.5  107 724.5  C 93.28 724.5  82.5 713.72  82.5 700  C 82.5 686.28  93.28 675.5  107 675.5  Z " stroke-width="1" stroke="#d7d7d7" fill="none" />
  </g>
</svg>