<?xml version="1.0" encoding="utf-8"?>
<svg version="1.1" xmlns:xlink="http://www.w3.org/1999/xlink" width="10px" height="10px" xmlns="http://www.w3.org/2000/svg">
  <g transform="matrix(1 0 0 1 -1032 -348 )">
    <path d="M 9.66346153846154 3.58538122243226  C 9.88782051282051 3.6231884057971  10 3.71980676328502  10 3.87523629489603  C 10 3.9676538542323  9.94791666666667 4.06847300987187  9.84375 4.17769376181474  L 7.66225961538462 6.40831758034027  L 8.17908653846154 9.55891619407687  C 8.18309294871795 9.58832178113842  8.18509615384615 9.6303297626549  8.18509615384615 9.68494013862634  C 8.18509615384615 9.77315689981096  8.1640625 9.84772106700273  8.12199519230769 9.90863264020164  C 8.07992788461539 9.96954421340055  8.01883012820513 10  7.93870192307692 10  C 7.86258012820513 10  7.78245192307692 9.97479521109011  7.69831730769231 9.92438563327032  L 5 8.43730308758664  L 2.30168269230769 9.92438563327032  C 2.21354166666667 9.97479521109011  2.13341346153846 10  2.06129807692308 10  C 1.97716346153846 10  1.9140625 9.96954421340055  1.87199519230769 9.90863264020164  C 1.82992788461538 9.84772106700273  1.80889423076923 9.77315689981096  1.80889423076923 9.68494013862634  C 1.80889423076923 9.65973534971645  1.81290064102564 9.61772736819996  1.82091346153846 9.55891619407687  L 2.33774038461538 6.40831758034027  L 0.150240384615385 4.17769376181474  C 0.0500801282051282 4.06427221172023  0 3.96345305608066  0 3.87523629489603  C 0 3.71980676328502  0.112179487179487 3.6231884057971  0.336538461538462 3.58538122243226  L 3.35336538461538 3.12539382482672  L 4.70552884615385 0.258349086326402  C 4.78165064102564 0.0861163621088001  4.87980769230769 0  5 0  C 5.12019230769231 0  5.21834935897436 0.0861163621088001  5.29447115384615 0.258349086326402  L 6.64663461538462 3.12539382482672  L 9.66346153846154 3.58538122243226  Z " fill-rule="nonzero" fill="#aaaaaa" stroke="none" transform="matrix(1 0 0 1 1032 348 )" />
  </g>
</svg>