<?xml version="1.0" encoding="utf-8"?>
<svg version="1.1" xmlns:xlink="http://www.w3.org/1999/xlink" width="11px" height="10px" xmlns="http://www.w3.org/2000/svg">
  <g transform="matrix(1 0 0 1 -443 -554 )">
    <path d="M 448.5 554  C 451.58 554  454 556.2  454 559  C 454 561.8  451.58 564  448.5 564  C 445.42 564  443 561.8  443 559  C 443 556.2  445.42 554  448.5 554  Z " fill-rule="nonzero" fill="#f2f2f2" stroke="none" />
    <path d="M 448.5 554.5  C 451.3 554.5  453.5 556.48  453.5 559  C 453.5 561.52  451.3 563.5  448.5 563.5  C 445.7 563.5  443.5 561.52  443.5 559  C 443.5 556.48  445.7 554.5  448.5 554.5  Z " stroke-width="1" stroke="#d7d7d7" fill="none" />
  </g>
</svg>