<?xml version="1.0" encoding="utf-8"?>
<svg version="1.1" xmlns:xlink="http://www.w3.org/1999/xlink" width="10px" height="10px" xmlns="http://www.w3.org/2000/svg">
  <g transform="matrix(1 0 0 1 -276 -718 )">
    <path d="M 281 718  C 283.8 718  286 720.2  286 723  C 286 725.8  283.8 728  281 728  C 278.2 728  276 725.8  276 723  C 276 720.2  278.2 718  281 718  Z " fill-rule="nonzero" fill="#f2f2f2" stroke="none" />
    <path d="M 281 718.5  C 283.52 718.5  285.5 720.48  285.5 723  C 285.5 725.52  283.52 727.5  281 727.5  C 278.48 727.5  276.5 725.52  276.5 723  C 276.5 720.48  278.48 718.5  281 718.5  Z " stroke-width="1" stroke="#d7d7d7" fill="none" />
  </g>
</svg>