<?xml version="1.0" encoding="utf-8"?>
<svg version="1.1" xmlns:xlink="http://www.w3.org/1999/xlink" width="10px" height="10px" xmlns="http://www.w3.org/2000/svg">
  <g transform="matrix(1 0 0 1 -292 -718 )">
    <path d="M 297 718  C 299.8 718  302 720.2  302 723  C 302 725.8  299.8 728  297 728  C 294.2 728  292 725.8  292 723  C 292 720.2  294.2 718  297 718  Z " fill-rule="nonzero" fill="#ffffff" stroke="none" />
    <path d="M 297 718.5  C 299.52 718.5  301.5 720.48  301.5 723  C 301.5 725.52  299.52 727.5  297 727.5  C 294.48 727.5  292.5 725.52  292.5 723  C 292.5 720.48  294.48 718.5  297 718.5  Z " stroke-width="1" stroke="#d7d7d7" fill="none" />
  </g>
</svg>