<?xml version="1.0" encoding="utf-8"?>
<svg version="1.1" xmlns:xlink="http://www.w3.org/1999/xlink" width="24px" height="24px" xmlns="http://www.w3.org/2000/svg">
  <g transform="matrix(1 0 0 1 -142 -3769 )">
    <path d="M 154 3769  C 160.72 3769  166 3774.28  166 3781  C 166 3787.72  160.72 3793  154 3793  C 147.28 3793  142 3787.72  142 3781  C 142 3774.28  147.28 3769  154 3769  Z " fill-rule="nonzero" fill="#f2f2f2" stroke="none" />
    <path d="M 154 3769.5  C 160.44 3769.5  165.5 3774.56  165.5 3781  C 165.5 3787.44  160.44 3792.5  154 3792.5  C 147.56 3792.5  142.5 3787.44  142.5 3781  C 142.5 3774.56  147.56 3769.5  154 3769.5  Z " stroke-width="1" stroke="#d7d7d7" fill="none" />
  </g>
</svg>