<svg t="1611198071792" class="icon" viewBox="0 0 1024 1024" version="1.1" xmlns="http://www.w3.org/2000/svg" p-id="2515" width="200" height="200"><path d="M596.8 241.6L560 280c-25.6 25.6-68.8 25.6-94.4 0l-38.4-38.4c-73.6-73.6-193.6-80-268.8-11.2-80 73.6-83.2 200-6.4 276.8l315.2 315.2c24 24 65.6 24 89.6 0L872 507.2c76.8-76.8 73.6-203.2-6.4-276.8-75.2-67.2-193.6-62.4-268.8 11.2zM552 196.8c97.6-97.6 254.4-105.6 356.8-14.4 108.8 99.2 112 267.2 9.6 369.6L601.6 867.2c-49.6 49.6-131.2 49.6-180.8 0L107.2 552C4.8 449.6 8 281.6 116.8 182.4 217.6 89.6 376 99.2 473.6 196.8l38.4 38.4c1.6 1.6 3.2 1.6 4.8 0l35.2-38.4z" p-id="2516"></path></svg>