<?xml version="1.0" encoding="utf-8"?>
<svg version="1.1" xmlns:xlink="http://www.w3.org/1999/xlink" width="34px" height="34px" xmlns="http://www.w3.org/2000/svg">
  <g transform="matrix(1 0 0 1 -1037 -1149 )">
    <path d="M 1054 1149  C 1063.52 1149  1071 1156.48  1071 1166  C 1071 1175.52  1063.52 1183  1054 1183  C 1044.48 1183  1037 1175.52  1037 1166  C 1037 1156.48  1044.48 1149  1054 1149  Z " fill-rule="nonzero" fill="#f2f2f2" stroke="none" />
    <path d="M 1054 1149.5  C 1063.24 1149.5  1070.5 1156.76  1070.5 1166  C 1070.5 1175.24  1063.24 1182.5  1054 1182.5  C 1044.76 1182.5  1037.5 1175.24  1037.5 1166  C 1037.5 1156.76  1044.76 1149.5  1054 1149.5  Z " stroke-width="1" stroke="#d7d7d7" fill="none" />
  </g>
</svg>