<?xml version="1.0" encoding="utf-8"?>
<svg version="1.1" xmlns:xlink="http://www.w3.org/1999/xlink" width="85px" height="85px" xmlns="http://www.w3.org/2000/svg">
  <g transform="matrix(1 0 0 1 -477 -4430 )">
    <path d="M 519.5 4430  C 543.3 4430  562 4448.7  562 4472.5  C 562 4496.3  543.3 4515  519.5 4515  C 495.7 4515  477 4496.3  477 4472.5  C 477 4448.7  495.7 4430  519.5 4430  Z " fill-rule="nonzero" fill="#f2f2f2" stroke="none" />
    <path d="M 519.5 4430.5  C 543.02 4430.5  561.5 4448.98  561.5 4472.5  C 561.5 4496.02  543.02 4514.5  519.5 4514.5  C 495.98 4514.5  477.5 4496.02  477.5 4472.5  C 477.5 4448.98  495.98 4430.5  519.5 4430.5  Z " stroke-width="1" stroke="#f2f2f2" fill="none" />
  </g>
</svg>