<?xml version="1.0" encoding="utf-8"?>
<svg version="1.1" xmlns:xlink="http://www.w3.org/1999/xlink" width="75px" height="25px" xmlns="http://www.w3.org/2000/svg">
  <defs>
    <mask fill="white" id="clip230">
      <path d="M 0 13  L 0 12  C 0 5.27999999999997  5.28 0  12 0  L 63 0  C 69.72 0  75 5.27999999999997  75 12  L 75 13  C 75 19.72  69.72 25  63 25  L 45.588785046729 25  L 12 25  C 5.28 25  0 19.72  0 13  Z " fill-rule="evenodd" />
    </mask>
  </defs>
  <g transform="matrix(1 0 0 1 -46 -545 )">
    <path d="M 0 13  L 0 12  C 0 5.27999999999997  5.28 0  12 0  L 63 0  C 69.72 0  75 5.27999999999997  75 12  L 75 13  C 75 19.72  69.72 25  63 25  L 45.588785046729 25  L 12 25  C 5.28 25  0 19.72  0 13  Z " fill-rule="nonzero" fill="#f2f2f2" stroke="none" transform="matrix(1 0 0 1 46 545 )" />
    <path d="M 0 13  L 0 12  C 0 5.27999999999997  5.28 0  12 0  L 63 0  C 69.72 0  75 5.27999999999997  75 12  L 75 13  C 75 19.72  69.72 25  63 25  L 45.588785046729 25  L 12 25  C 5.28 25  0 19.72  0 13  Z " stroke-width="2" stroke="#d7d7d7" fill="none" transform="matrix(1 0 0 1 46 545 )" mask="url(#clip230)" />
  </g>
</svg>