<?xml version="1.0" encoding="utf-8"?>
<svg version="1.1" xmlns:xlink="http://www.w3.org/1999/xlink" width="72px" height="67px" xmlns="http://www.w3.org/2000/svg">
  <g transform="matrix(1 0 0 1 -54 -205 )">
    <path d="M 90 205  C 110.16 205  126 219.74  126 238.5  C 126 257.26  110.16 272  90 272  C 69.84 272  54 257.26  54 238.5  C 54 219.74  69.84 205  90 205  Z " fill-rule="nonzero" fill="#f2f2f2" stroke="none" />
    <path d="M 90 205.5  C 109.88 205.5  125.5 220.02  125.5 238.5  C 125.5 256.98  109.88 271.5  90 271.5  C 70.12 271.5  54.5 256.98  54.5 238.5  C 54.5 220.02  70.12 205.5  90 205.5  Z " stroke-width="1" stroke="#f2f2f2" fill="none" />
  </g>
</svg>