<?xml version="1.0" encoding="utf-8"?>
<svg version="1.1" xmlns:xlink="http://www.w3.org/1999/xlink" width="19px" height="25px" xmlns="http://www.w3.org/2000/svg">
  <g transform="matrix(1 0 0 1 -401 -376 )">
    <path d="M 17.6516927083333 9.06575520833333  L 15.8704427083333 6.72200520833333  L 11.4791666666667 12.5  L 15.8704427083333 18.2779947916667  L 17.6516927083333 15.9342447916667  C 17.8908420138889 15.5978732638889  18.1794704861111 15.5219184027778  18.517578125 15.7063802083333  C 18.8391927083333 15.8908420138889  19 16.2109375  19 16.6666666666667  L 19 23.9583333333333  C 19 24.2404513888889  18.9216579861111 24.4845920138889  18.7649739583333 24.6907552083333  C 18.6082899305556 24.8969184027778  18.4227430555556 25  18.2083333333333 25  L 12.6666666666667 25  C 12.3203125 25  12.0770399305556 24.7829861111111  11.9368489583333 24.3489583333333  C 11.7966579861111 23.92578125  11.8543836805556 23.5514322916667  12.1100260416667 23.2259114583333  L 13.8912760416667 20.8821614583333  L 9.5 15.1041666666667  L 5.10872395833333 20.8821614583333  L 6.88997395833333 23.2259114583333  C 7.14561631944444 23.5514322916667  7.20334201388889 23.92578125  7.06315104166667 24.3489583333333  C 6.92296006944444 24.7829861111111  6.6796875 25  6.33333333333333 25  L 0.791666666666667 25  C 0.577256944444445 25  0.391710069444444 24.8969184027778  0.235026041666667 24.6907552083333  C 0.0783420138888889 24.4845920138889  0 24.2404513888889  0 23.9583333333333  L 0 16.6666666666667  C 0 16.2109375  0.164930555555556 15.8908420138889  0.494791666666667 15.7063802083333  C 0.81640625 15.5219184027778  1.10091145833333 15.5978732638889  1.34830729166667 15.9342447916667  L 3.12955729166667 18.2779947916667  L 7.52083333333333 12.5  L 3.12955729166667 6.72200520833333  L 1.34830729166667 9.06575520833333  C 1.19162326388889 9.27191840277778  1.00607638888889 9.375  0.791666666666667 9.375  C 0.692708333333333 9.375  0.59375 9.34787326388889  0.494791666666667 9.29361979166667  C 0.164930555555556 9.10915798611111  0 8.7890625  0 8.33333333333333  L 0 1.04166666666667  C 0 0.759548611111108  0.0783420138888889 0.515407986111108  0.235026041666667 0.309244791666666  C 0.391710069444444 0.103081597222221  0.577256944444445 0  0.791666666666667 0  L 6.33333333333333 0  C 6.6796875 0  6.92296006944444 0.217013888888887  7.06315104166667 0.651041666666666  C 7.20334201388889 1.07421875  7.14561631944444 1.44856770833333  6.88997395833333 1.77408854166667  L 5.10872395833333 4.11783854166667  L 9.5 9.89583333333333  L 13.8912760416667 4.11783854166667  L 12.1100260416667 1.77408854166667  C 11.8543836805556 1.44856770833333  11.7966579861111 1.07421875  11.9368489583333 0.651041666666666  C 12.0770399305556 0.217013888888887  12.3203125 0  12.6666666666667 0  L 18.2083333333333 0  C 18.4227430555556 0  18.6082899305556 0.103081597222221  18.7649739583333 0.309244791666666  C 18.9216579861111 0.515407986111108  19 0.759548611111108  19 1.04166666666667  L 19 8.33333333333333  C 19 8.7890625  18.8391927083333 9.10915798611111  18.517578125 9.29361979166667  C 18.4103732638889 9.34787326388889  18.3072916666667 9.375  18.2083333333333 9.375  C 17.9939236111111 9.375  17.8083767361111 9.27191840277778  17.6516927083333 9.06575520833333  Z " fill-rule="nonzero" fill="#aaaaaa" stroke="none" transform="matrix(1 0 0 1 401 376 )" />
  </g>
</svg>