<svg t="1608002639922" class="icon" viewBox="0 0 1024 1024" version="1.1" xmlns="http://www.w3.org/2000/svg" p-id="5986" width="200" height="200"><path d="M864.9 418.5c-17.7 0-32-14.3-32-32C832.9 210.3 689.6 67 513.4 67S193.9 210.3 193.9 386.5c0 17.7-14.3 32-32 32s-32-14.3-32-32c0-51.8 10.1-102 30.2-149.3 19.3-45.7 47-86.7 82.2-121.9s76.2-62.9 121.9-82.2C411.4 13.1 461.6 3 513.4 3c51.8 0 102 10.1 149.3 30.2 45.7 19.3 86.7 47 121.9 82.2s62.9 76.2 82.2 121.9c20 47.3 30.2 97.5 30.2 149.3-0.1 17.6-14.4 31.9-32.1 31.9zM546.1 1023.7h-66c-52.9 0-95.9-43-95.9-95.9s43-95.9 95.9-95.9h66c52.9 0 95.9 43 95.9 95.9s-43 95.9-95.9 95.9z m-66-127.8c-17.6 0-31.9 14.3-31.9 31.9s14.3 31.9 31.9 31.9h66c17.6 0 31.9-14.3 31.9-31.9s-14.3-31.9-31.9-31.9h-66z" p-id="5987"></path><path d="M162 735.9H97c-52.9 0-96-43.1-96-96V447.8c0-52.9 43.1-96 96-96h65c17.7 0 32 14.3 32 32v320.1c0 17.7-14.3 32-32 32zM97 415.8c-17.6 0-32 14.4-32 32v192.1c0 17.6 14.4 32 32 32h33V415.8H97zM928.2 735.9h-64c-17.7 0-32-14.3-32-32V383.8c0-17.7 14.3-32 32-32h64c52.9 0 96 43.1 96 96v192.1c0 52.9-43.1 96-96 96z m-32-64h32c17.6 0 32-14.4 32-32V447.8c0-17.6-14.4-32-32-32h-32v256.1z" p-id="5988"></path><path d="M383 943.9c-63.9 0-124-24.9-169.2-70.2-45.3-45.4-70.1-105.7-69.8-169.8 0-8.8 7.2-15.9 16-15.9h0.1c8.8 0 16 7.2 15.9 16.1-0.2 55.5 21.2 107.8 60.4 147.1 39.1 39.2 91.1 60.8 146.5 60.8h0.4l32.7-0.1c8.8 0 16 7.1 16 16 0 8.8-7.1 16-16 16l-32.7 0.1c0-0.1-0.1-0.1-0.3-0.1z" p-id="5989"></path></svg>