<?xml version="1.0" encoding="utf-8"?>
<svg version="1.1" xmlns:xlink="http://www.w3.org/1999/xlink" width="233px" height="33px" xmlns="http://www.w3.org/2000/svg">
  <defs>
    <mask fill="white" id="clip251">
      <path d="M 18.2203791469194 33  C 8.01696682464454 33  0 25.74  0 16.5  C 0 7.25999999999999  8.01696682464454 0  18.2203791469194 0  L 112.310287148035 0  L 214.779620853081 0  C 224.983033175355 0  233 7.25999999999999  233 16.5  C 233 25.74  224.983033175355 33  214.779620853081 33  L 18.2203791469194 33  Z " fill-rule="evenodd" />
    </mask>
  </defs>
  <g transform="matrix(1 0 0 1 -71 -553 )">
    <path d="M 18.2203791469194 33  C 8.01696682464454 33  0 25.74  0 16.5  C 0 7.25999999999999  8.01696682464454 0  18.2203791469194 0  L 112.310287148035 0  L 214.779620853081 0  C 224.983033175355 0  233 7.25999999999999  233 16.5  C 233 25.74  224.983033175355 33  214.779620853081 33  L 18.2203791469194 33  Z " fill-rule="nonzero" fill="#ffffff" stroke="none" transform="matrix(1 0 0 1 71 553 )" />
    <path d="M 18.2203791469194 33  C 8.01696682464454 33  0 25.74  0 16.5  C 0 7.25999999999999  8.01696682464454 0  18.2203791469194 0  L 112.310287148035 0  L 214.779620853081 0  C 224.983033175355 0  233 7.25999999999999  233 16.5  C 233 25.74  224.983033175355 33  214.779620853081 33  L 18.2203791469194 33  Z " stroke-width="2" stroke="#f2f2f2" fill="none" transform="matrix(1 0 0 1 71 553 )" mask="url(#clip251)" />
  </g>
</svg>