<?xml version="1.0" encoding="utf-8"?>
<svg version="1.1" xmlns:xlink="http://www.w3.org/1999/xlink" width="16px" height="16px" xmlns="http://www.w3.org/2000/svg">
  <g transform="matrix(1 0 0 1 -379 -371 )">
    <path d="M 15.7250859106529 7.6312625250501  C 15.9083619702176 7.73814295257181  16 7.86105544422178  16 8  C 16 8.13894455577822  15.9083619702176 8.26185704742819  15.7250859106529 8.3687374749499  L 2.91408934707904 15.8396793587174  C 2.73081328751432 15.9465597862391  2.52004581901489 16  2.28178694158076 16  C 2.04352806414662 16  1.83276059564719 15.9465597862391  1.64948453608247 15.8396793587174  L 0.274914089347079 15.0380761523046  C 0.0916380297823597 14.9311957247829  0 14.8082832331329  0 14.6693386773547  C 0 14.5303941215765  0.0916380297823597 14.4074816299265  0.274914089347079 14.3006012024048  L 11.0790378006873 8  L 0.274914089347079 1.69939879759519  C 0.0916380297823597 1.59251837007348  0 1.46960587842351  0 1.33066132264529  C 0 1.19171676686707  0.0916380297823597 1.0688042752171  0.274914089347079 0.96192384769539  L 1.64948453608247 0.160320641282565  C 1.83276059564719 0.0534402137608545  2.04352806414662 0  2.28178694158076 0  C 2.52004581901489 0  2.73081328751432 0.0534402137608545  2.91408934707904 0.160320641282565  L 15.7250859106529 7.6312625250501  Z " fill-rule="nonzero" fill="#cccccc" stroke="none" transform="matrix(1 0 0 1 379 371 )" />
  </g>
</svg>