<?xml version="1.0" encoding="utf-8"?>
<svg version="1.1" xmlns:xlink="http://www.w3.org/1999/xlink" width="15px" height="15px" xmlns="http://www.w3.org/2000/svg">
  <g transform="matrix(1 0 0 1 -201 -397 )">
    <path d="M 208.5 397  C 212.7 397  216 400.3  216 404.5  C 216 408.7  212.7 412  208.5 412  C 204.3 412  201 408.7  201 404.5  C 201 400.3  204.3 397  208.5 397  Z " fill-rule="nonzero" fill="#ffffff" stroke="none" />
    <path d="M 208.5 397.5  C 212.42 397.5  215.5 400.58  215.5 404.5  C 215.5 408.42  212.42 411.5  208.5 411.5  C 204.58 411.5  201.5 408.42  201.5 404.5  C 201.5 400.58  204.58 397.5  208.5 397.5  Z " stroke-width="1" stroke="#d7d7d7" fill="none" />
  </g>
</svg>