<?xml version="1.0" encoding="utf-8"?>
<svg version="1.1" xmlns:xlink="http://www.w3.org/1999/xlink" width="54px" height="29px" xmlns="http://www.w3.org/2000/svg">
  <g transform="matrix(1 0 0 1 -863 -623 )">
    <path d="M 864 628  A 4 4 0 0 1 868 624 L 912 624  A 4 4 0 0 1 916 628 L 916 647  A 4 4 0 0 1 912 651 L 868 651  A 4 4 0 0 1 864 647 L 864 628  Z " fill-rule="nonzero" fill="#f2f2f2" stroke="none" />
    <path d="M 863.5 628  A 4.5 4.5 0 0 1 868 623.5 L 912 623.5  A 4.5 4.5 0 0 1 916.5 628 L 916.5 647  A 4.5 4.5 0 0 1 912 651.5 L 868 651.5  A 4.5 4.5 0 0 1 863.5 647 L 863.5 628  Z " stroke-width="1" stroke="#797979" fill="none" stroke-opacity="0.486274509803922" />
  </g>
</svg>