<svg t="1610956037402" class="icon" viewBox="0 0 1024 1024" version="1.1" xmlns="http://www.w3.org/2000/svg" p-id="4968" width="200" height="200"><path d="M529.6 241.9c-100.2 1-151.9 48.6-171.4 145.1l1.4 0.4c-1.8 2.9-2.8 6.4-2.8 10 0 10.8 8.7 19.5 19.4 19.5s19.4-8.7 19.4-19.5v-0.1C410.4 326 448.3 279.7 531.5 281c52.3 1.9 96.7 42.7 97.1 97.1 1 42.5-22.9 83.7-63.1 111-37.5 25.4-73.4 55.1-72.8 102.5 0 10.7 8.7 19.4 19.4 19.4s19.4-8.7 19.4-19.4c-3-25.4 19.9-48.2 50-67.7 58.6-40.4 87.8-96.8 86.3-146.2 0.2-81.4-57-134.8-138.2-135.8z m370.6 215.2c0-215.2-173.8-389.6-388.1-389.6S124 242 124 457.1c0 184.8 128.2 339.4 300.3 379.4h-0.3s23.4 5.9 32.5 23.4c4.4 8.5 28.1 58.7 42.8 89.3 2 4.1 5.2 11 12.8 11 7.6 0 10.8-6.9 12.8-11 14.7-30.6 38.4-80.8 42.8-89.3 9.1-17.5 32.5-23.4 32.5-23.4h-0.2c172-40 300.2-194.6 300.2-379.4z m-306 340.1h-0.4s-30.4 7.4-40.2 22.7c-25.7 40-41.5 82.1-41.5 82.1s-20.3-50.6-47-89.4c-8.6-12.5-32.3-20.9-32.3-20.9h0.2c-171.2-35.6-270.2-173.5-270.2-338.2 0-191.8 156.4-347.2 349.3-347.2s349.3 155.5 349.3 347.2c0 164.8-107.5 307.5-267.2 343.7z m-73.8-147.5h-16.6c-6.1 0-11.1 5.8-11.1 13v13c0 7.2 5 13 11.1 13h16.6c6.1 0 11.1-5.8 11.1-13v-13c-0.1-7.2-5-13-11.1-13z" p-id="4969"></path></svg>