<svg t="1610955965211" class="icon" viewBox="0 0 1024 1024" version="1.1" xmlns="http://www.w3.org/2000/svg" p-id="4236" width="200" height="200"><path d="M694 112c17.673 0 32 14.327 32 32v31h122c35.346 0 64 28.654 64 64v609c0 35.346-28.654 64-64 64H176c-35.346 0-64-28.654-64-64V239c0-35.346 28.654-64 64-64h128v-31c0-17.673 14.327-32 32-32 17.673 0 32 14.327 32 32v31h294v-31c0-17.673 14.327-32 32-32zM176 420.407V848h672V422H186c-3.492 0-6.854-0.56-10-1.593zM360 669c8.837 0 16 7.163 16 16v48c0 8.837-7.163 16-16 16h-48c-8.837 0-16-7.163-16-16v-48c0-8.837 7.163-16 16-16h48z m176 0c8.837 0 16 7.163 16 16v48c0 8.837-7.163 16-16 16h-48c-8.837 0-16-7.163-16-16v-48c0-8.837 7.163-16 16-16h48z m176 0c8.837 0 16 7.163 16 16v48c0 8.837-7.163 16-16 16h-48c-8.837 0-16-7.163-16-16v-48c0-8.837 7.163-16 16-16h48zM360 517c8.837 0 16 7.163 16 16v48c0 8.837-7.163 16-16 16h-48c-8.837 0-16-7.163-16-16v-48c0-8.837 7.163-16 16-16h48z m176 0c8.837 0 16 7.163 16 16v48c0 8.837-7.163 16-16 16h-48c-8.837 0-16-7.163-16-16v-48c0-8.837 7.163-16 16-16h48z m176 0c8.837 0 16 7.163 16 16v48c0 8.837-7.163 16-16 16h-48c-8.837 0-16-7.163-16-16v-48c0-8.837 7.163-16 16-16h48zM304 239H176v120.593A31.971 31.971 0 0 1 186 358h662V239H726v31c0 17.673-14.327 32-32 32-17.673 0-32-14.327-32-32v-31H368v31c0 17.673-14.327 32-32 32-17.673 0-32-14.327-32-32v-31z" p-id="4237"></path></svg>